<svg width="160" height="160" viewBox="0 0 160 160" fill="none" xmlns="http://www.w3.org/2000/svg">
<path d="M52.25 104.825V104.603L52.0848 104.454C49.8947 102.479 48.5 99.6483 48.5 96.5V59C48.5 55.8085 49.3142 53.3405 50.7565 51.4193C52.2024 49.4933 54.3104 48.0759 56.9655 47.0442C62.2963 44.9726 69.709 44.5 78 44.5C86.291 44.5 93.7037 44.9726 99.0345 47.0442C101.69 48.0759 103.798 49.4933 105.243 51.4193C106.686 53.3405 107.5 55.8085 107.5 59V96.5C107.5 99.6483 106.105 102.479 103.915 104.454L103.75 104.603V104.825V114.75H93.5V107.75V107.25H93H63H62.5V107.75V114.75H52.25V104.825ZM100.5 78.25H101V77.75V59V58.5H100.5H55.5H55V59V77.75V78.25H55.5H100.5ZM55 94.625C55 98.0136 57.7364 100.75 61.125 100.75C64.5136 100.75 67.25 98.0136 67.25 94.625C67.25 91.2364 64.5136 88.5 61.125 88.5C57.7364 88.5 55 91.2364 55 94.625ZM88.75 94.625C88.75 98.0136 91.4864 100.75 94.875 100.75C98.2636 100.75 101 98.0136 101 94.625C101 91.2364 98.2636 88.5 94.875 88.5C91.4864 88.5 88.75 91.2364 88.75 94.625Z" fill="#EFEAE5" stroke="#A69898"/>
<circle cx="80" cy="80" r="79.5" stroke="#A69898"/>
</svg>
