<svg width="160" height="160" viewBox="0 0 160 160" fill="none" xmlns="http://www.w3.org/2000/svg">
<path d="M79.121 91.3781L79.4733 91.7313L79.8273 91.3798L83.3773 87.8548L83.7334 87.5013L83.3786 87.1464L75.5 79.2679V68V67.5H75H70H69.5V68V81.525V81.7317L69.646 81.8781L79.121 91.3781ZM50.5 80.5C50.5 68.3511 60.3511 58.5 72.5 58.5C84.6489 58.5 94.5 68.3511 94.5 80.5C94.5 92.6489 84.6489 102.5 72.5 102.5C60.3511 102.5 50.5 92.6489 50.5 80.5Z" fill="#EFEAE5" stroke="#A69898"/>
<path d="M105.5 80.5C105.5 73.437 101.413 67.3227 95.4751 64.3864V60.0206C103.661 63.232 109.5 71.1963 109.5 80.5C109.5 89.8038 103.661 97.7681 95.4751 100.979V96.6137C101.413 93.6774 105.5 87.5631 105.5 80.5Z" fill="#EFEAE5" stroke="#A69898"/>
<circle cx="80" cy="80" r="79.5" stroke="#A69898"/>
</svg>
