<svg width="160" height="160" viewBox="0 0 160 160" fill="none" xmlns="http://www.w3.org/2000/svg">
<path d="M70.0529 75.664H70.424L70.5315 75.3088L76.455 55.7269L82.3786 75.3088L82.486 75.664H82.8571H101.351L86.2966 86.4239L86.0029 86.6338L86.1097 86.9786L91.866 105.57L76.7573 94.1044L76.4548 93.8748L76.1525 94.1046L61.0685 105.57L66.8006 86.978L66.9068 86.6335L66.6135 86.4239L51.5594 75.664H70.0529ZM98.6509 90.6039L98.3575 90.8138L98.4641 91.1584L102.924 105.57L97.044 101.106L93.3357 89.1177L101.06 83.6005H108.442L98.6509 90.6039ZM85.2842 63.1269L87.5147 55.7274L91.6539 69.373H87.1703L85.2842 63.1269Z" fill="#EEEAE5" stroke="#A69898"/>
<circle cx="80" cy="80" r="79.5" stroke="#A69898"/>
</svg>
